<svg width="1012" height="260" viewBox="0 0 1012 260" fill="none" xmlns="http://www.w3.org/2000/svg">
<g clip-path="url(#clip0)">
<g opacity="0.25">
<path d="M771 422H241V167.262C241 156.608 249.614 148 260.277 148H751.723C762.386 148 771 156.608 771 167.262V422Z" fill="#ADC9FE"/>
<path d="M750.094 150.178H263.048C252.385 150.178 243.771 158.792 243.771 169.455V172.467C243.771 161.804 252.385 153.19 263.048 153.19H750.154C760.817 153.19 769.431 161.804 769.431 172.467V169.455C769.371 158.792 760.757 150.178 750.094 150.178Z" fill="url(#paint0_linear)"/>
<path d="M264.433 185.72H264.192C259.252 185.72 255.216 181.684 255.216 176.744C255.216 171.804 259.252 167.768 264.192 167.768H264.433C269.373 167.768 273.409 171.804 273.409 176.744C273.409 181.684 269.373 185.72 264.433 185.72Z" fill="url(#paint1_radial)"/>
<path d="M264.433 181.865H264.192C259.433 181.865 255.638 178.009 255.638 173.311C255.638 168.552 259.494 164.756 264.192 164.756H264.433C269.192 164.756 272.988 168.612 272.988 173.311C272.988 178.07 269.192 181.865 264.433 181.865Z" fill="#99B6FA"/>
<path d="M264.433 166.564C268.168 166.564 271.18 169.576 271.18 173.311C271.18 177.045 268.168 180.057 264.433 180.057H264.192C260.457 180.057 257.445 177.045 257.445 173.311C257.445 169.576 260.457 166.564 264.192 166.564H264.433ZM264.433 164.756H264.192C259.433 164.756 255.638 168.612 255.638 173.311C255.638 178.07 259.494 181.865 264.192 181.865H264.433C269.192 181.865 272.988 178.009 272.988 173.311C272.988 168.612 269.192 164.756 264.433 164.756Z" fill="url(#paint2_linear)"/>
<path d="M290.337 185.72H290.096C285.156 185.72 281.12 181.684 281.12 176.744C281.12 171.804 285.156 167.768 290.096 167.768H290.337C295.277 167.768 299.313 171.804 299.313 176.744C299.313 181.684 295.277 185.72 290.337 185.72Z" fill="url(#paint3_radial)"/>
<path d="M290.337 181.865H290.096C285.337 181.865 281.542 178.009 281.542 173.311C281.542 168.552 285.397 164.756 290.096 164.756H290.337C295.096 164.756 298.891 168.612 298.891 173.311C298.891 178.07 295.096 181.865 290.337 181.865Z" fill="#DDE7FF"/>
<path d="M290.337 166.564C294.072 166.564 297.084 169.576 297.084 173.311C297.084 177.045 294.072 180.057 290.337 180.057H290.096C286.361 180.057 283.349 177.045 283.349 173.311C283.349 169.576 286.361 166.564 290.096 166.564H290.337ZM290.337 164.756H290.096C285.337 164.756 281.542 168.612 281.542 173.311C281.542 178.07 285.397 181.865 290.096 181.865H290.337C295.096 181.865 298.891 178.009 298.891 173.311C298.891 168.612 295.096 164.756 290.337 164.756Z" fill="url(#paint4_linear)"/>
<path d="M316.24 185.72H315.999C311.06 185.72 307.023 181.684 307.023 176.744C307.023 171.804 311.06 167.768 315.999 167.768H316.24C321.18 167.768 325.216 171.804 325.216 176.744C325.216 181.684 321.18 185.72 316.24 185.72Z" fill="url(#paint5_radial)"/>
<path d="M316.24 181.865H315.999C311.24 181.865 307.445 178.009 307.445 173.311C307.445 168.552 311.301 164.756 315.999 164.756H316.24C320.999 164.756 324.795 168.612 324.795 173.311C324.795 178.07 320.999 181.865 316.24 181.865Z" fill="#DDE7FF"/>
<path d="M316.24 166.564C319.975 166.564 322.987 169.576 322.987 173.311C322.987 177.045 319.975 180.057 316.24 180.057H315.999C312.265 180.057 309.253 177.045 309.253 173.311C309.253 169.576 312.265 166.564 315.999 166.564H316.24ZM316.24 164.756H315.999C311.24 164.756 307.445 168.612 307.445 173.311C307.445 178.07 311.301 181.865 315.999 181.865H316.24C320.999 181.865 324.795 178.009 324.795 173.311C324.795 168.612 320.999 164.756 316.24 164.756Z" fill="url(#paint6_linear)"/>
<path d="M758 421H254V205.257C254 201.239 257.25 198 261.283 198H750.717C754.75 198 758 201.239 758 205.257V421Z" fill="white"/>
<path d="M749.71 198.922C753.746 198.922 756.999 202.166 756.999 206.19V421.435H255.062V206.19C255.062 202.166 258.315 198.922 262.351 198.922H749.71ZM749.71 197.721H262.351C257.652 197.721 253.857 201.505 253.857 206.19V421.435H758.143V206.19C758.204 201.505 754.408 197.721 749.71 197.721Z" fill="url(#paint7_linear)"/>
<path d="M631.257 241.322H284.373C279.614 241.322 275.819 237.466 275.819 232.768C275.819 228.009 279.674 224.213 284.373 224.213H631.257C636.016 224.213 639.811 228.069 639.811 232.768C639.811 237.466 635.956 241.322 631.257 241.322Z" fill="#6EA0FD"/>
<path d="M631.257 239.515H284.373C279.614 239.515 275.819 235.659 275.819 230.96C275.819 226.201 279.674 222.406 284.373 222.406H631.257C636.016 222.406 639.811 226.262 639.811 230.96C639.811 235.659 635.956 239.515 631.257 239.515Z" fill="#C2D7FE"/>
<path d="M631.257 224.213C634.992 224.213 638.004 227.226 638.004 230.96C638.004 234.695 634.992 237.707 631.257 237.707H284.373C280.638 237.707 277.626 234.695 277.626 230.96C277.626 227.226 280.638 224.213 284.373 224.213H631.257ZM631.257 222.406H284.373C279.614 222.406 275.819 226.262 275.819 230.96C275.819 235.719 279.674 239.515 284.373 239.515H631.257C636.016 239.515 639.811 235.659 639.811 230.96C639.811 226.201 635.956 222.406 631.257 222.406Z" fill="url(#paint8_linear)"/>
<path d="M725.912 241.322H725.671C720.912 241.322 717.117 237.466 717.117 232.768C717.117 228.009 720.973 224.213 725.671 224.213H725.912C730.671 224.213 734.466 228.069 734.466 232.768C734.466 237.466 730.611 241.322 725.912 241.322Z" fill="#6EA0FD"/>
<path d="M725.912 239.515H725.671C720.912 239.515 717.117 235.659 717.117 230.96C717.117 226.201 720.973 222.406 725.671 222.406H725.912C730.671 222.406 734.466 226.262 734.466 230.96C734.466 235.659 730.611 239.515 725.912 239.515Z" fill="#D8E2FA"/>
<path d="M725.912 224.213C729.647 224.213 732.659 227.226 732.659 230.96C732.659 234.695 729.647 237.707 725.912 237.707H725.671C721.936 237.707 718.924 234.695 718.924 230.96C718.924 227.226 721.936 224.213 725.671 224.213H725.912ZM725.912 222.406H725.671C720.912 222.406 717.117 226.262 717.117 230.96C717.117 235.719 720.973 239.515 725.671 239.515H725.912C730.671 239.515 734.466 235.659 734.466 230.96C734.466 226.201 730.611 222.406 725.912 222.406Z" fill="url(#paint9_linear)"/>
<path d="M700.009 241.322H699.768C695.009 241.322 691.214 237.466 691.214 232.768C691.214 228.009 695.069 224.213 699.768 224.213H700.009C704.768 224.213 708.563 228.069 708.563 232.768C708.563 237.466 704.708 241.322 700.009 241.322Z" fill="#6EA0FD"/>
<path d="M700.009 239.515H699.768C695.009 239.515 691.214 235.659 691.214 230.96C691.214 226.201 695.069 222.406 699.768 222.406H700.009C704.768 222.406 708.563 226.262 708.563 230.96C708.563 235.659 704.708 239.515 700.009 239.515Z" fill="#D8E2FA"/>
<path d="M700.009 224.213C703.744 224.213 706.756 227.226 706.756 230.96C706.756 234.695 703.744 237.707 700.009 237.707H699.768C696.033 237.707 693.021 234.695 693.021 230.96C693.021 227.226 696.033 224.213 699.768 224.213H700.009ZM700.009 222.406H699.768C695.009 222.406 691.214 226.262 691.214 230.96C691.214 235.719 695.069 239.515 699.768 239.515H700.009C704.768 239.515 708.563 235.659 708.563 230.96C708.563 226.201 704.708 222.406 700.009 222.406Z" fill="url(#paint10_linear)"/>
<path d="M674.106 241.322H673.865C669.106 241.322 665.311 237.466 665.311 232.768C665.311 228.009 669.166 224.213 673.865 224.213H674.106C678.865 224.213 682.66 228.069 682.66 232.768C682.66 237.466 678.804 241.322 674.106 241.322Z" fill="#6EA0FD"/>
<path d="M674.106 239.515H673.865C669.106 239.515 665.311 235.659 665.311 230.96C665.311 226.201 669.166 222.406 673.865 222.406H674.106C678.865 222.406 682.66 226.262 682.66 230.96C682.66 235.659 678.804 239.515 674.106 239.515Z" fill="#D8E2FA"/>
<path d="M674.106 224.213C677.841 224.213 680.853 227.226 680.853 230.96C680.853 234.695 677.841 237.707 674.106 237.707H673.865C670.13 237.707 667.118 234.695 667.118 230.96C667.118 227.226 670.13 224.213 673.865 224.213H674.106ZM674.106 222.406H673.865C669.106 222.406 665.311 226.262 665.311 230.96C665.311 235.719 669.166 239.515 673.865 239.515H674.106C678.865 239.515 682.66 235.659 682.66 230.96C682.66 226.201 678.804 222.406 674.106 222.406Z" fill="url(#paint11_linear)"/>
</g>
<path d="M870.463 68.985L867.456 63.9459C857.874 47.8904 836.247 43.1745 819.152 53.4097C802.057 63.6449 795.966 84.9633 805.548 101.015L808.556 106.055C818.137 122.109 839.764 126.826 856.859 116.59C873.954 106.354 880.046 85.0405 870.463 68.985Z" fill="url(#paint12_linear)"/>
<path d="M853.828 111.534C870.919 101.299 877.008 79.9908 867.428 63.9418C857.848 47.8927 836.227 43.1801 819.136 53.4157C802.045 63.6513 795.956 84.9592 805.536 101.008C815.116 117.057 836.737 121.77 853.828 111.534Z" fill="#E9F1FF"/>
<path opacity="0.3" d="M867.456 63.9461C867.378 63.8158 867.293 63.6932 867.214 63.5654C876.467 79.5746 870.346 100.624 853.385 110.779C836.424 120.935 815.017 116.37 805.319 100.626C805.397 100.757 805.462 100.89 805.54 101.02C815.122 117.075 836.75 121.791 853.844 111.556C870.938 101.321 877.037 80.0016 867.456 63.9461Z" fill="white"/>
<path d="M844.318 80.5957C846.059 80.0065 847.966 80.1414 849.619 80.9707C851.271 81.8001 852.535 83.256 853.131 85.0182C853.728 86.7804 853.608 88.7045 852.799 90.3672C851.99 92.0299 850.557 93.2951 848.816 93.8844C845.3 95.0742 841.245 93.1329 840.002 89.4619L836.72 90.5728C837.265 92.185 837.212 93.9379 836.572 95.5051C835.931 97.0722 834.747 98.3465 833.238 99.0908C831.73 99.835 830.002 99.9983 828.375 99.5502C826.747 99.1022 825.333 98.0734 824.394 96.6554C823.455 95.2375 823.057 93.5272 823.273 91.8431C823.488 90.159 824.304 88.6161 825.567 87.5018C826.83 86.3874 828.455 85.7777 830.138 85.7862C831.822 85.7947 833.449 86.4207 834.718 87.5478L839.756 85.8426C839.99 84.6371 840.535 83.5175 841.336 82.5964C842.137 81.6753 843.165 80.9852 844.318 80.5957ZM818.576 85.6055L817.452 82.2833L820.734 81.1724L819.048 76.1892C818.451 74.427 818.571 72.5029 819.38 70.8402C820.19 69.1774 821.622 67.9123 823.363 67.323L836.493 62.8793C838.234 62.2901 840.14 62.4249 841.793 63.2543C843.446 64.0837 844.71 65.5396 845.306 67.3018L846.993 72.285L850.275 71.1741L851.399 74.4963L818.576 85.6055Z" fill="#C2D7FE"/>
<path d="M4.53676 127.985L7.54397 122.946C17.1263 106.89 38.7529 102.175 55.8477 112.41C72.9425 122.645 79.034 143.963 69.4516 160.015L66.4444 165.055C56.8629 181.109 35.2355 185.826 18.1407 175.59C1.04591 165.354 -5.04558 144.04 4.53676 127.985Z" fill="url(#paint13_linear)"/>
<path d="M21.1716 170.534C4.08057 160.299 -2.00838 138.991 7.57158 122.942C17.1515 106.893 38.7727 102.18 55.8637 112.416C72.9548 122.651 79.0437 143.959 69.4638 160.008C59.8838 176.057 38.2627 180.77 21.1716 170.534Z" fill="#E9F1FF"/>
<path opacity="0.3" d="M7.54448 122.946C7.62238 122.816 7.70711 122.693 7.78587 122.565C-1.4669 138.575 4.6537 159.624 21.615 169.779C38.5762 179.935 59.9828 175.37 69.6807 159.626C69.6028 159.757 69.5377 159.89 69.4598 160.02C59.8783 176.075 38.2501 180.791 21.1561 170.556C4.06218 160.321 -2.03699 139.002 7.54448 122.946Z" fill="white"/>
<path d="M24.4636 131.706L29.1381 132.669L25.2325 151.626L20.5579 150.663C20.1447 150.578 19.7826 150.33 19.5515 149.973C19.3203 149.617 19.2389 149.181 19.3252 148.762L22.5799 132.965C22.6662 132.546 22.9132 132.178 23.2664 131.942C23.6197 131.706 24.0503 131.621 24.4636 131.706ZM33.1318 131.363L45.1872 123.307C45.3475 123.2 45.5404 123.154 45.7305 123.179C45.9205 123.204 46.0949 123.298 46.2216 123.443L47.3424 124.728C47.6536 125.085 47.853 125.527 47.9155 126C47.9779 126.473 47.9005 126.955 47.6931 127.385L44.4221 134.171L54.3945 136.226C55.221 136.396 55.9451 136.892 56.4074 137.605C56.8698 138.318 57.0326 139.189 56.8599 140.027L56.1751 143.351C56.0905 143.764 55.9268 144.157 55.6934 144.507L48.4249 155.385C48.2477 155.65 47.9969 155.856 47.7044 155.978C47.4119 156.099 47.0909 156.129 46.7821 156.066L29.907 152.589C29.4938 152.504 29.1317 152.256 28.9006 151.899C28.6694 151.543 28.588 151.107 28.6743 150.688L32.4452 132.385C32.5316 131.967 32.7786 131.599 33.1318 131.363Z" fill="#C2D7FE"/>
<path d="M992.507 139.864L986.601 136.601C967.781 126.206 943.55 134.019 932.477 154.047C921.405 174.075 927.688 198.745 946.506 209.136L952.412 212.399C971.231 222.793 995.463 214.982 1006.53 194.952C1017.61 174.923 1011.33 150.259 992.507 139.864Z" fill="url(#paint14_linear)"/>
<path d="M1000.59 191.687C1011.66 171.66 1005.38 147.002 986.57 136.613C967.756 126.223 943.532 134.035 932.464 154.062C921.396 174.088 927.675 198.746 946.489 209.136C965.302 219.526 989.526 211.713 1000.59 191.687Z" fill="#E9F1FF"/>
<path opacity="0.3" d="M986.6 136.602C986.447 136.517 986.292 136.445 986.139 136.363C1004.6 146.903 1010.7 171.322 999.717 191.194C988.731 211.066 964.806 218.901 946.052 208.882C946.205 208.967 946.347 209.062 946.5 209.145C965.318 219.541 989.551 211.727 1000.62 191.7C1011.69 171.672 1005.42 146.997 986.6 136.602Z" fill="white"/>
<path fill-rule="evenodd" clip-rule="evenodd" d="M970.676 172.75H961.782C961.956 177.47 962.825 181.58 964.043 184.503C964.729 186.15 965.458 187.255 966.087 187.894C966.392 188.203 966.629 188.358 966.779 188.432C966.916 188.499 966.981 188.5 967 188.5H967V190.25C967 190.886 967.169 191.482 967.466 191.995C967.311 191.999 967.156 192.001 967 192.001C955.402 192.001 946 182.598 946 171C946 159.421 955.371 150.031 966.943 150C966.962 150 966.981 150 967 150C967.018 150 967.037 150 967.056 150C976.817 150.025 985.012 156.71 987.339 165.75H983.699C981.997 160.33 977.729 156.046 972.318 154.322C973.938 157.302 975.111 161.609 975.554 166.566C973.079 167.722 971.233 170.002 970.676 172.75ZM964.043 157.497C962.825 160.419 961.956 164.529 961.782 169.25H972.218C972.043 164.529 971.174 160.419 969.956 157.497C969.27 155.85 968.542 154.745 967.912 154.106C967.607 153.797 967.37 153.641 967.22 153.568C967.106 153.511 967.041 153.502 967.013 153.5L967 153.5L966.987 153.5C966.958 153.502 966.894 153.511 966.779 153.568C966.629 153.641 966.392 153.797 966.087 154.106C965.458 154.745 964.729 155.85 964.043 157.497ZM949.587 169.25H958.279C958.488 163.172 959.776 157.828 961.681 154.323C955.151 156.404 950.285 162.214 949.587 169.25ZM949.586 172.75H958.279C958.488 178.828 959.776 184.172 961.681 187.678C955.151 185.597 950.285 179.786 949.586 172.75ZM977.625 174.5C977.625 173.05 978.801 171.875 980.251 171.875C981.7 171.875 982.875 173.05 982.876 174.5H985.501C985.5 171.6 983.15 169.25 980.251 169.25C977.351 169.25 975 171.601 975 174.5V178H973C972.172 178 971.5 178.672 971.5 179.5V190.5C971.5 191.329 972.172 192 973 192H987.5C988.329 192 989 191.329 989 190.5V179.5C989 178.672 988.329 178 987.5 178H977.625V174.5ZM980.25 186.75C981.217 186.75 982 185.966 982 185C982 184.033 981.217 183.25 980.25 183.25C979.284 183.25 978.5 184.033 978.5 185C978.5 185.966 979.284 186.75 980.25 186.75Z" fill="#C2D7FE"/>
<path d="M183.507 23.8639L177.601 20.6012C158.781 10.2064 134.55 18.0186 123.477 38.047C112.405 58.0755 118.688 82.7448 137.506 93.1363L143.412 96.3989C162.231 106.793 186.463 98.9816 197.535 78.9523C208.606 58.923 202.327 34.2587 183.507 23.8639Z" fill="url(#paint15_linear)"/>
<path d="M191.594 75.6867C202.662 55.66 196.383 31.0025 177.57 20.6126C158.756 10.2228 134.532 18.035 123.464 38.0617C112.396 58.0884 118.675 82.7459 137.489 93.1358C156.302 103.526 180.526 95.7134 191.594 75.6867Z" fill="#E9F1FF"/>
<path opacity="0.3" d="M177.6 20.6015C177.447 20.5172 177.292 20.4445 177.139 20.3633C195.605 30.9026 201.702 55.3216 190.717 75.1938C179.731 95.066 155.806 102.901 137.052 92.8824C137.205 92.9667 137.347 93.0619 137.5 93.1453C156.318 103.541 180.551 95.7275 191.623 75.6995C202.694 55.6716 196.418 30.9969 177.6 20.6015Z" fill="white"/>
<path fill-rule="evenodd" clip-rule="evenodd" d="M171.758 55.0932L169.881 54.9317L161.561 57.9826C160.92 58.2176 160.379 58.664 160.026 59.2482C159.673 59.8324 159.53 60.5197 159.62 61.1962L160.943 71.0967C160.971 71.3087 161.008 71.519 161.053 71.7271L157.595 76.251L143.294 65.3203C140.466 63.1584 138.342 60.2063 137.191 56.8374C136.04 53.4684 135.914 49.8339 136.829 46.3934C137.744 42.9529 139.659 39.861 142.331 37.5086C145.003 35.1563 148.313 33.6491 151.842 33.1777C155.37 32.7064 158.959 33.292 162.155 34.8605C165.351 36.429 168.01 38.91 169.796 41.9897C171.582 45.0694 172.415 48.6095 172.188 52.1624C172.125 53.1539 171.981 54.1339 171.758 55.0932ZM149.466 45.6017L147.483 45.8665L148.807 55.7785L150.79 55.5137L149.466 45.6017ZM154.754 54.984L154.49 53.0017L154.225 51.0193L153.695 47.0545L153.43 45.0721L155.413 44.8073L159.378 44.2777C160.472 44.1314 161.479 44.9004 161.625 45.9952L162.154 49.96C162.301 51.0549 161.532 52.061 160.437 52.2072L156.472 52.7368L156.737 54.7192L154.754 54.984ZM160.172 50.2248L156.207 50.7545L155.678 46.7897L159.642 46.26L160.172 50.2248ZM170.152 56.963L162.249 59.8609C162.036 59.9392 161.855 60.088 161.737 60.2828C161.62 60.4775 161.572 60.7065 161.602 60.932L162.925 70.832C163.056 71.8109 163.426 72.7422 164.004 73.5435C164.581 74.3448 165.347 74.9912 166.234 75.4253L173.065 78.7693L178.779 73.7496C179.521 73.0977 180.09 72.2727 180.437 71.3479C180.784 70.423 180.897 69.4268 180.766 68.4477L179.444 58.5487C179.414 58.3232 179.307 58.1147 179.143 57.9577C178.978 57.8007 178.765 57.7045 178.538 57.6849L170.152 56.963ZM164.907 70.5662L163.691 61.4621L170.423 58.9949L172.747 76.3875L167.113 73.6291C166.522 73.3396 166.011 72.9085 165.626 72.3742C165.241 71.8399 164.994 71.2189 164.907 70.5662Z" fill="#C2D7FE"/>
<path d="M961.613 8.08839L965.435 5.97726C977.612 -0.748825 993.291 4.30613 1000.46 17.2657C1007.62 30.2253 1003.55 46.1878 991.378 52.9117L987.557 55.0229C975.38 61.7487 959.7 56.694 952.536 43.7338C945.372 30.7737 949.435 14.8145 961.613 8.08839Z" fill="url(#paint16_linear)"/>
<path d="M956.38 41.6211C949.218 28.6626 953.281 12.7078 965.455 5.98492C977.628 -0.737919 993.303 4.31705 1000.46 17.2755C1007.63 30.234 1003.56 46.1888 991.39 52.9117C979.216 59.6345 963.542 54.5795 956.38 41.6211Z" fill="#E9F1FF"/>
<path opacity="0.3" d="M965.435 5.97742C965.534 5.92286 965.635 5.87583 965.733 5.82324C953.785 12.6428 949.839 28.4433 956.948 41.3018C964.056 54.1603 979.537 59.2299 991.672 52.7474C991.573 52.802 991.481 52.8635 991.382 52.9175C979.205 59.6439 963.525 54.5883 956.362 41.629C949.198 28.6698 953.258 12.7038 965.435 5.97742Z" fill="white"/>
<path fill-rule="evenodd" clip-rule="evenodd" d="M980.747 13.4066L989.628 16.3015C990.121 16.463 990.437 16.9349 990.385 17.4386L989.282 28.1634C989.061 30.3176 987.745 32.2161 985.778 33.2205L978.318 37.032L971.789 31.782C970.066 30.397 969.166 28.2717 969.387 26.1186L970.49 15.3926C970.542 14.889 970.947 14.4911 971.463 14.4335L980.747 13.4066ZM985.32 20.1598L978.532 25.6807L975.378 21.8026L973.439 23.38L978.172 29.1985L986.899 22.099L985.32 20.1598ZM991.74 40.9255L980.216 39.7404C979.863 38.9529 979.11 38.3701 978.19 38.2754C977.269 38.1808 976.414 38.5982 975.908 39.2973L964.384 38.1123L964.128 40.5992L975.652 41.7842C976.006 42.5718 976.758 43.1545 977.678 43.2492C978.599 43.3439 979.454 42.9264 979.96 42.2273L991.484 43.4124L991.74 40.9255Z" fill="#C2D7FE"/>
<path d="M179.387 180.088L175.565 177.977C163.388 171.251 147.709 176.306 140.544 189.266C133.38 202.225 137.445 218.188 149.622 224.912L153.443 227.023C165.62 233.749 181.3 228.694 188.464 215.734C195.628 202.774 191.565 186.814 179.387 180.088Z" fill="url(#paint17_linear)"/>
<path d="M184.62 213.621C191.782 200.663 187.719 184.708 175.545 177.985C163.372 171.262 147.697 176.317 140.536 189.276C133.374 202.234 137.437 218.189 149.61 224.912C161.784 231.634 177.458 226.58 184.62 213.621Z" fill="#E9F1FF"/>
<path opacity="0.3" d="M175.565 177.977C175.466 177.923 175.365 177.876 175.267 177.823C187.215 184.643 191.161 200.443 184.052 213.302C176.944 226.16 161.463 231.23 149.328 224.747C149.427 224.802 149.519 224.864 149.618 224.918C161.795 231.644 177.475 226.588 184.638 213.629C191.802 200.67 187.742 184.704 175.565 177.977Z" fill="white"/>
<path fill-rule="evenodd" clip-rule="evenodd" d="M175.374 190.838C175.154 191.754 174.234 192.318 173.318 192.099C172.402 191.879 171.838 190.959 172.058 190.043C172.277 189.128 173.197 188.563 174.113 188.783C175.029 189.002 175.593 189.923 175.374 190.838ZM168.754 212.255L171.124 216.12L173.111 214.902L154.162 184L152.175 185.218L154.545 189.084C152.047 190.925 150.159 193.625 149.379 196.88C147.623 204.205 152.137 211.568 159.463 213.324C162.718 214.104 165.98 213.647 168.754 212.255ZM172.574 209.413C174.154 207.739 175.332 205.64 175.907 203.24C172.303 201.207 171.596 199.284 173.208 194.996C170.577 193.78 168.764 191.592 170.064 188.611C168.798 187.791 167.374 187.168 165.823 186.796C163.423 186.221 161.019 186.318 158.81 186.967L172.574 209.413ZM157.249 198.182C157.029 199.098 156.109 199.662 155.193 199.443C154.277 199.223 153.713 198.303 153.933 197.387C154.152 196.472 155.072 195.907 155.988 196.127C156.904 196.346 157.468 197.267 157.249 198.182ZM161.628 209.167C162.848 209.46 164.075 208.708 164.368 207.487C164.661 206.266 163.909 205.039 162.688 204.746C161.467 204.453 160.24 205.206 159.947 206.427C159.654 207.648 160.407 208.875 161.628 209.167ZM156.897 204.526C156.751 205.137 156.137 205.513 155.527 205.366C154.916 205.22 154.54 204.607 154.686 203.996C154.833 203.386 155.446 203.009 156.057 203.156C156.667 203.302 157.043 203.916 156.897 204.526ZM166.201 192.401C166.812 192.547 167.425 192.171 167.571 191.56C167.718 190.95 167.342 190.336 166.731 190.19C166.121 190.044 165.507 190.42 165.361 191.03C165.214 191.641 165.591 192.254 166.201 192.401Z" fill="#C2D7FE"/>
</g>
<defs>
<linearGradient id="paint0_linear" x1="441.572" y1="150.161" x2="441.572" y2="172.45" gradientUnits="userSpaceOnUse">
<stop stop-color="#C2D7FE"/>
<stop offset="0.9996" stop-color="#C2D7FE" stop-opacity="0.1"/>
</linearGradient>
<radialGradient id="paint1_radial" cx="0" cy="0" r="1" gradientUnits="userSpaceOnUse" gradientTransform="translate(264.205 173.283) scale(11.693)">
<stop offset="0.3724" stop-color="#3D7FFC"/>
<stop offset="0.9996" stop-color="#3D7FFC" stop-opacity="0"/>
</radialGradient>
<linearGradient id="paint2_linear" x1="264.33" y1="164.769" x2="264.33" y2="181.895" gradientUnits="userSpaceOnUse">
<stop offset="0.000421262" stop-color="#ADC9FE"/>
<stop offset="1" stop-color="#3D7FFC"/>
</linearGradient>
<radialGradient id="paint3_radial" cx="0" cy="0" r="1" gradientUnits="userSpaceOnUse" gradientTransform="translate(290.109 173.283) scale(11.693)">
<stop offset="0.3724" stop-color="#3D7FFC"/>
<stop offset="0.9996" stop-color="#3D7FFC" stop-opacity="0"/>
</radialGradient>
<linearGradient id="paint4_linear" x1="290.234" y1="164.769" x2="290.234" y2="181.895" gradientUnits="userSpaceOnUse">
<stop offset="0.000421262" stop-color="#EEF4FF"/>
<stop offset="1" stop-color="#ADC9FE"/>
</linearGradient>
<radialGradient id="paint5_radial" cx="0" cy="0" r="1" gradientUnits="userSpaceOnUse" gradientTransform="translate(316.012 173.283) scale(11.693)">
<stop offset="0.3724" stop-color="#3D7FFC"/>
<stop offset="0.9996" stop-color="#3D7FFC" stop-opacity="0"/>
</radialGradient>
<linearGradient id="paint6_linear" x1="316.137" y1="164.769" x2="316.137" y2="181.895" gradientUnits="userSpaceOnUse">
<stop offset="0.000421262" stop-color="#EEF4FF"/>
<stop offset="1" stop-color="#ADC9FE"/>
</linearGradient>
<linearGradient id="paint7_linear" x1="439.858" y1="196.86" x2="439.858" y2="421.4" gradientUnits="userSpaceOnUse">
<stop stop-color="#3D7FFC" stop-opacity="0.1"/>
<stop offset="1" stop-color="#3D7FFC"/>
</linearGradient>
<linearGradient id="paint8_linear" x1="368.518" y1="222.38" x2="368.518" y2="239.505" gradientUnits="userSpaceOnUse">
<stop offset="0.000421262" stop-color="#EEF4FF"/>
<stop offset="1" stop-color="#ADC9FE"/>
</linearGradient>
<linearGradient id="paint9_linear" x1="725.805" y1="222.38" x2="725.805" y2="239.505" gradientUnits="userSpaceOnUse">
<stop offset="0.000421262" stop-color="#EEF4FF"/>
<stop offset="1" stop-color="#ADC9FE"/>
</linearGradient>
<linearGradient id="paint10_linear" x1="699.902" y1="222.38" x2="699.902" y2="239.505" gradientUnits="userSpaceOnUse">
<stop offset="0.000421262" stop-color="#EEF4FF"/>
<stop offset="1" stop-color="#ADC9FE"/>
</linearGradient>
<linearGradient id="paint11_linear" x1="673.998" y1="222.38" x2="673.998" y2="239.505" gradientUnits="userSpaceOnUse">
<stop offset="0.000421262" stop-color="#EEF4FF"/>
<stop offset="1" stop-color="#ADC9FE"/>
</linearGradient>
<linearGradient id="paint12_linear" x1="805.708" y1="118.31" x2="874.897" y2="47.8581" gradientUnits="userSpaceOnUse">
<stop stop-color="#E9F1FF"/>
<stop offset="0.27042" stop-color="#D1E1FF"/>
<stop offset="1" stop-color="#F6F9FF"/>
</linearGradient>
<linearGradient id="paint13_linear" x1="69.2915" y1="177.31" x2="0.103379" y2="106.858" gradientUnits="userSpaceOnUse">
<stop stop-color="#E9F1FF"/>
<stop offset="0.27042" stop-color="#D1E1FF"/>
<stop offset="1" stop-color="#F6F9FF"/>
</linearGradient>
<linearGradient id="paint14_linear" x1="956.674" y1="226.202" x2="984.577" y2="116.314" gradientUnits="userSpaceOnUse">
<stop stop-color="#E9F1FF"/>
<stop offset="0.27042" stop-color="#D1E1FF"/>
<stop offset="1" stop-color="#F6F9FF"/>
</linearGradient>
<linearGradient id="paint15_linear" x1="147.674" y1="110.202" x2="175.577" y2="0.314371" gradientUnits="userSpaceOnUse">
<stop stop-color="#E9F1FF"/>
<stop offset="0.27042" stop-color="#D1E1FF"/>
<stop offset="1" stop-color="#F6F9FF"/>
</linearGradient>
<linearGradient id="paint16_linear" x1="984.799" y1="63.9545" x2="966.744" y2="-7.14952" gradientUnits="userSpaceOnUse">
<stop stop-color="#E9F1FF"/>
<stop offset="0.27042" stop-color="#D1E1FF"/>
<stop offset="1" stop-color="#F6F9FF"/>
</linearGradient>
<linearGradient id="paint17_linear" x1="156.201" y1="235.954" x2="174.256" y2="164.85" gradientUnits="userSpaceOnUse">
<stop stop-color="#E9F1FF"/>
<stop offset="0.27042" stop-color="#D1E1FF"/>
<stop offset="1" stop-color="#F6F9FF"/>
</linearGradient>
<clipPath id="clip0">
<rect width="1012" height="260" fill="white"/>
</clipPath>
</defs>
</svg>
